<svg xmlns="http://www.w3.org/2000/svg" fill="none" viewBox="0 0 24 24" id="Netlify--Streamline-Svg-Logos" height="24" width="24">
  <desc>
    Netlify Streamline Icon: https://streamlinehq.com
  </desc>
  <path fill="#05bdba" d="M5.640075 16.726175v-2.406525l0.050175 -0.0502h0.50135l0.050175 0.0502v2.406525l-0.050175 0.050225H5.69025l-0.050175 -0.050225Zm0 -7.04595v-2.4064l0.050175 -0.0502h0.50135l0.050175 0.0502v2.4064l-0.050175 0.050175H5.69025l-0.050175 -0.050175ZM3.46075 14.991325h-0.0709l-0.35445 -0.3546v-0.070925l0.8277 -0.827475 0.375325 0.000175 0.050375 0.049975v0.37535l-0.82805 0.8275Zm-0.00035 -5.98265h-0.0709l-0.35445 0.35465v0.070875l0.8277 0.827525 0.375325 -0.000175 0.050375 -0.050025v-0.375325l-0.82805 -0.827525ZM0.300185 11.699175H3.7094l0.050175 0.050175v0.501325l-0.050175 0.0502H0.300185L0.25 12.250675v-0.501325l0.050185 -0.050175Zm20.190815 0h3.208775l0.050225 0.050175v0.501325l-0.050225 0.0502H20.290625l-0.050225 -0.0502 0.2004 -0.501325 0.0502 -0.050175Z" stroke-width="0.25"></path>
  <path fill="#014847" d="m9.983 12.214025 -0.050175 0.0502h-1.5552l-0.050175 0.050175c0 0.100375 0.100375 0.401275 0.501675 0.401275 0.15055 0 0.3009 -0.05015 0.351125 -0.15055l0.05015 -0.05015h0.60205l0.050175 0.05015 -0.00325 0.01825c-0.05715 0.3006 -0.312725 0.73435 -1.05025 0.73435 -0.8528 0 -1.25425 -0.60205 -1.25425 -1.304275 0 -0.702225 0.401275 -1.30425 1.204025 -1.30425 0.8028 0 1.2041 0.602025 1.2041 1.30425v0.200575Zm-0.80275 -0.4515 0.05015 -0.050175 -0.0003 -0.00805c-0.00465 -0.071575 -0.06705 -0.39325 -0.4512 -0.39325 -0.401275 0 -0.45145 0.351125 -0.45145 0.4013l0.050175 0.050175h0.802625Zm2.2074 0.75245c0 0.100325 0.050175 0.15055 0.15055 0.15055h0.45145l0.050225 0.05015v0.501675l-0.050225 0.0502h-0.45145c-0.4515 0 -0.852775 -0.20075 -0.852775 -0.752575V11.41125l-0.050225 -0.0502h-0.351075l-0.0502 -0.050175v-0.501675l0.0502 -0.050175h0.351075l0.050225 -0.050175v-0.4515l0.050175 -0.050175h0.602025l0.050175 0.050175v0.4515l0.0502 0.050175h0.55185l0.0502 0.050175v0.501675l-0.0502 0.050175H11.438l-0.0502 0.0502v1.103725h-0.00015Zm1.856125 0.752575h-0.60205l-0.0502 -0.0502V9.80605l0.0502 -0.0502h0.60205l0.050175 0.0502v3.4113l-0.050175 0.0502Zm1.35445 -2.90965h-0.60205l-0.0502 -0.050175v-0.501675l0.0502 -0.0502h0.60205l0.050175 0.0502v0.501675l-0.050175 0.050175Zm0 2.90965h-0.60205l-0.0502 -0.0502v-2.407975l0.0502 -0.050175h0.60205l0.050175 0.050175v2.407975l-0.050175 0.0502Zm2.3578 -3.4615v0.501675l-0.050225 0.050175h-0.45145c-0.100375 0 -0.1506 0.050175 -0.1506 0.15055v0.20075l0.050225 0.050175h0.501675l0.05015 0.050175v0.501675l-0.05015 0.050175h-0.501675l-0.050225 0.0502v1.805925l-0.05015 0.050175h-0.60205l-0.050175 -0.050175v-1.805925l-0.0502 -0.0502h-0.351075l-0.050225 -0.050175v-0.501675l0.050225 -0.050175h0.351075l0.0502 -0.050175v-0.20075c0 -0.545925 0.3927 -0.748225 0.83825 -0.752525l0.466 -0.000075 0.0502 0.0502h0.0002Zm1.8563 3.5115 -0.019225 0.0471c-0.1949 0.47345 -0.404425 0.7557 -1.084675 0.7557H17.4575l-0.050175 -0.050225v-0.50165l0.050175 -0.050175h0.250925l0.029125 -0.00025c0.225625 -0.003925 0.2738 -0.055975 0.322 -0.2005v-0.050175l-0.802625 -1.9565v-0.501675l0.0502 -0.050175h0.451475l0.0502 0.050175 0.60205 1.705775h0.050175l0.602025 -1.705775 0.050175 -0.050175h0.4515l0.050175 0.050175v0.501675l-0.802575 2.006675Zm-12.345225 -0.05 -0.05015 -0.0502 0.000325 -1.453575c0 -0.25075 -0.0986 -0.445175 -0.4013 -0.4515 -0.155625 -0.004025 -0.333725 -0.00035 -0.523975 0.007725l-0.0284 0.029125 0.000375 1.868225 -0.050225 0.0502h-0.60185l-0.050175 -0.0502v-2.434825l0.050175 -0.050175 1.35445 -0.012275c0.67855 0 0.95315 0.466225 0.95315 0.99245v1.504825l-0.05015 0.0502h-0.60225Z" stroke-width="0.25"></path>
</svg>